# xmcd
#
# Track frame offsets:
#	150
#	14752
#	28325
#	46078
#	64402
#	75669
#	89364
#	101590
#	120076
#	135688
#	152673
#	170725
#	184011
#	196410
#	211833
#	225349
#	240560
#	258336
#	273212
#	285460
#	302944
#	316192
#	338057
#
# Disc length: 4690 seconds
#
# Revision: 0
# Processed by: cddbd v1.5.2PL0 Copyright (c) Steve Scherf et al.
# Submitted via: audiograbber 1.80
#
DISCID=38125017
DTITLE=Various Artist - Country Music For Dario
DYEAR=1900
DGENRE=
TTITLE0=John Denver - Country Roads
TTITLE1=Charlie Rich - Behind Close Doors
TTITLE2=Linda Ronstadt - Blue Bayou
TTITLE3=Alan Jackson - I Love The Way You Love Me
TTITLE4=Linda Ronstadt - It's So Easy To Fall In Love
TTITLE5=Charlie Rich - Every Time You Touch Me
TTITLE6=Dolly Parton  - Jolien
TTITLE7=Alan Jackson  - Bring On The Night
TTITLE8=Alan Jackson - Once In  a  Lifetime Love
TTITLE9=Linda Ronstadt - You're No Good
TTITLE10=Alan Jackson - I'll Go On Love You
TTITLE11=Roy Rogers and Dale Evans - Happy Trails
TTITLE12=Charlie Rich - The Most Beautiful Girl
TTITLE13=Alan Jackson - The Sounds
TTITLE14=Roy Roberson - Pretty Woman
TTITLE15=Shania Twain - Youre Still the One
TTITLE16=Kenny Rogers - Lady
TTITLE17=Starlight  vocal Band - Afternoon Delight
TTITLE18=Tammy Wynette - Stand By Your Man
TTITLE19=The Best of the Nitty Gritty  Dirt Band - Americain Dream
TTITLE20=Tumbleweeds - Somewhere Between
TTITLE21=Shania Twain - The Woman In  my
TTITLE22=Tammy  Wynette - Till I Can  make It  on  my  own
EXTD=
EXTT0=
EXTT1=
EXTT2=
EXTT3=
EXTT4=
EXTT5=
EXTT6=
EXTT7=
EXTT8=
EXTT9=
EXTT10=
EXTT11=
EXTT12=
EXTT13=
EXTT14=
EXTT15=
EXTT16=
EXTT17=
EXTT18=
EXTT19=
EXTT20=
EXTT21=
EXTT22=
PLAYORDER=
